<svg width="377" height="376" viewBox="0 0 377 376" fill="none" xmlns="http://www.w3.org/2000/svg">
<rect width="377" height="375.933" rx="93" fill="white"/>
<path d="M186.21 185.044C186.21 210.776 186.21 236.499 186.21 262.212C186.21 265.88 185.5 269.518 185.234 273.156C185.098 275.408 184.256 277.56 182.827 279.307C181.399 281.054 179.456 282.307 177.275 282.887C172.493 284.597 167.397 285.247 162.34 284.792C157.282 284.338 152.384 282.789 147.984 280.254C144.045 278.164 140.525 275.366 137.599 272.002C134.244 267.909 129.864 264.776 124.906 262.922C115.699 259.756 107.816 253.602 102.513 245.438C97.2097 237.274 94.7922 227.572 95.6451 217.875C95.715 215.012 95.0423 212.179 93.6924 209.652C85.5264 192.113 88.0413 174.337 101.059 160.228C104.444 156.611 106.527 151.969 106.977 147.037C108.663 131.331 115.853 119.322 130.409 112.164C133.067 110.545 135.478 108.553 137.569 106.249C139.138 104.77 140.291 102.847 141.771 101.25C146.786 95.5719 153.747 91.9763 161.282 91.1716C168.816 90.3669 176.38 92.4113 182.482 96.9024C183.793 97.8473 184.831 99.1219 185.491 100.597C186.151 102.072 186.409 103.695 186.239 105.302C186.22 131.824 186.21 158.404 186.21 185.044ZM180.943 244.791C180.943 240.265 181.18 235.651 180.943 231.096C180.707 226.541 178.429 224.382 173.724 223.347C169.967 222.489 166.416 220.922 162.718 219.798C160.934 219.013 158.974 218.717 157.037 218.94C150.455 220.929 143.977 223.249 137.629 225.891C134.904 227.321 132.377 229.101 130.114 231.185C129.185 231.994 127.984 232.419 126.753 232.375C125.522 232.331 124.355 231.821 123.486 230.948C122.391 229.972 121.385 227.281 121.977 226.334C125.468 220.419 123.812 215.598 120.232 210.717C119.777 210.269 119.421 209.732 119.186 209.138C118.951 208.545 118.843 207.909 118.868 207.272C118.893 206.634 119.051 206.009 119.332 205.436C119.612 204.863 120.01 204.355 120.498 203.944C120.97 203.43 121.539 203.016 122.173 202.725C122.808 202.434 123.493 202.273 124.191 202.251C124.888 202.229 125.583 202.346 126.234 202.597C126.885 202.847 127.48 203.224 127.983 203.707C129.315 204.802 130.409 206.162 131.652 207.316C133.51 209.15 135.838 210.437 138.379 211.037C140.921 211.637 143.578 211.526 146.061 210.717C148.414 210.082 150.521 208.751 152.104 206.898C153.688 205.046 154.675 202.758 154.937 200.336C155.169 199.096 155.475 197.871 155.854 196.668C155.987 196.034 156.249 195.436 156.625 194.909C157.002 194.382 157.483 193.94 158.039 193.609C158.596 193.278 159.215 193.066 159.857 192.987C160.499 192.907 161.151 192.962 161.771 193.148C162.41 193.173 163.036 193.329 163.612 193.605C164.188 193.881 164.701 194.273 165.119 194.755C165.538 195.237 165.853 195.8 166.046 196.409C166.238 197.018 166.304 197.659 166.239 198.295C166.239 200.128 165.795 201.933 165.706 203.767C165.529 204.681 165.544 205.622 165.752 206.53C165.959 207.437 166.354 208.292 166.912 209.038C167.469 209.784 168.176 210.406 168.987 210.863C169.799 211.321 170.697 211.603 171.624 211.693C173.073 212.019 174.582 212.255 176.032 212.492C178.665 212.965 180.529 211.841 180.559 209.179C180.801 201.614 180.643 194.042 180.085 186.493C179.494 180.578 175.47 177.62 169.553 177.62C165.387 177.454 161.263 178.497 157.677 180.622C154.091 182.748 151.198 185.866 149.345 189.599C148.161 191.847 147.274 194.243 146.09 196.461C143.871 200.543 142.155 201.045 137.984 198.886C135.853 197.792 133.812 196.52 131.711 195.278C126.208 192.024 121.445 191.876 117.095 196.579C116.319 197.563 115.19 198.206 113.947 198.372C112.704 198.537 111.446 198.213 110.438 197.466C106.74 195.248 106.415 192.142 109.699 188.593C111.333 187.236 112.563 185.456 113.257 183.449C113.951 181.441 114.081 179.282 113.634 177.206C113.492 176.558 113.482 175.889 113.604 175.237C113.726 174.586 113.979 173.965 114.346 173.413C114.713 172.861 115.188 172.389 115.741 172.024C116.295 171.659 116.917 171.41 117.569 171.29C120.527 170.403 122.244 171.823 123.634 174.248C129.759 185.488 135.676 186.079 144.345 176.733C151.534 169.131 160.144 165.108 170.973 167.12C178.044 168.421 180.648 166.351 180.855 159.163C181.186 154.385 181.137 149.588 180.707 144.818C180.055 142.72 178.735 140.892 176.949 139.613C175.548 138.819 174.014 138.288 172.423 138.045C169.623 137.36 167.003 136.085 164.737 134.305C162.471 132.524 160.613 130.28 159.286 127.722C158.458 126.516 158.122 125.038 158.348 123.592C158.573 122.146 159.343 120.841 160.499 119.943C163.162 117.814 165.44 119.204 167.629 120.919C169.819 122.635 171.505 124.173 173.547 125.622C178.31 128.935 180.352 127.989 180.766 122.28C180.766 120.801 180.914 119.322 180.914 117.814C181.086 114.251 179.913 110.754 177.628 108.015C175.343 105.276 172.113 103.495 168.576 103.025C164.702 102.386 160.725 102.861 157.111 104.396C153.496 105.93 150.392 108.46 148.161 111.691C145.861 114.457 144.422 117.836 144.022 121.411C143.622 124.985 144.28 128.599 145.913 131.804C147.435 135.495 149.857 138.746 152.957 141.262C156.058 143.778 159.739 145.478 163.665 146.208C166.328 146.77 168.487 148.101 168.28 151.266C168.284 151.965 168.149 152.658 167.882 153.304C167.616 153.95 167.223 154.536 166.728 155.029C166.232 155.522 165.643 155.911 164.995 156.174C164.347 156.437 163.654 156.568 162.955 156.561C160.577 156.809 158.173 156.639 155.854 156.058C148.043 153.81 144.019 155.318 140.439 162.654C139.256 165.108 137.688 166.617 134.818 165.937C131.948 165.256 130.972 162.979 131.031 160.199C131.105 155.893 132.856 151.786 135.913 148.752C136.98 147.774 137.737 146.505 138.089 145.101C138.441 143.697 138.374 142.221 137.895 140.855C136.534 136.832 134.936 132.869 133.457 129.024C132.48 126.51 130.735 125.8 128.693 127.722C121.711 134.289 116.859 142.008 118.368 152.035C118.899 154.696 118.619 157.454 117.564 159.954C116.509 162.454 114.728 164.579 112.45 166.055C106.393 170.43 102.246 176.961 100.864 184.302C99.4825 191.644 100.971 199.235 105.024 205.512C107.248 208.896 108.115 212.993 107.45 216.988C106.406 222.445 106.92 228.087 108.935 233.266C110.95 238.445 114.383 242.951 118.841 246.27C125.912 252.185 127.717 251.83 131.652 243.608C135.587 235.385 141.445 232.191 149.611 233.995C151.285 234.4 152.919 234.954 154.493 235.651C156.23 236.446 158.145 236.769 160.046 236.587C161.948 236.405 163.767 235.725 165.322 234.616C165.973 234.147 166.655 233.722 167.363 233.344C168.421 232.618 169.716 232.321 170.985 232.513C172.254 232.705 173.402 233.372 174.198 234.379C175.175 235.38 175.723 236.723 175.723 238.121C175.723 239.519 175.175 240.862 174.198 241.863C172.918 243.182 171.476 244.335 169.908 245.294C164.405 248.813 164.316 248.902 166.328 255.232C167.541 259.047 166.061 262.005 162.511 261.946C161.586 261.867 160.688 261.588 159.881 261.128C159.074 260.668 158.376 260.039 157.836 259.284C156.58 256.627 155.589 253.853 154.878 251.002C154.611 250.055 154.155 249.171 153.54 248.403C152.924 247.636 152.16 247 151.293 246.533C150.426 246.067 149.474 245.78 148.494 245.689C147.514 245.598 146.525 245.705 145.587 246.003C141.682 246.95 140.173 249.671 141.031 254.256C141.281 255.374 141.617 256.472 142.037 257.539C143.998 262.305 147.391 266.345 151.747 269.1C156.104 271.856 161.209 273.19 166.357 272.919C174.346 272.919 179.227 269.044 180.293 261.088C180.707 255.764 180.707 250.322 180.943 244.791Z" fill="url(#paint0_linear_3_8)"/>
<path d="M192.127 188.15C192.127 160.701 192.127 133.253 192.127 105.805C192.127 98.9432 193.843 96.3995 200.204 93.9742C214.436 88.0586 227.72 91.6375 237.306 104.06C240.452 108.169 244.501 111.498 249.141 113.791C262.987 120.979 268.875 133.401 270.295 148.279C270.62 152.787 272.627 157.009 275.917 160.11C281.83 166.288 285.799 174.067 287.329 182.48C288.86 190.893 287.885 199.57 284.526 207.434C282.519 211.686 281.507 216.339 281.568 221.04C281.716 230.062 279.049 238.906 273.938 246.343C268.826 253.78 261.524 259.441 253.046 262.537C247.959 264.502 243.437 267.692 239.88 271.825C235.368 277.376 229.261 281.411 222.383 283.384C215.505 285.357 208.188 285.173 201.417 282.857C194.05 280.698 192.186 278.095 192.186 270.464C192.147 243.016 192.127 215.578 192.127 188.15ZM197.305 247.305H196.891C196.891 251.327 196.891 255.35 196.891 259.343C196.795 260.992 197.025 262.644 197.568 264.204C198.111 265.764 198.956 267.202 200.055 268.435C201.154 269.669 202.485 270.673 203.973 271.392C205.461 272.111 207.076 272.529 208.725 272.623C213.632 273.13 218.584 272.274 223.036 270.15C227.489 268.027 231.269 264.717 233.963 260.585C235.394 257.743 236.191 254.625 236.3 251.446C236.478 248.015 234.14 246.033 230.708 245.53C228.939 245.191 227.107 245.545 225.592 246.52C224.077 247.495 222.996 249.015 222.572 250.765C221.419 254.11 219.973 257.346 218.252 260.437C217.069 262.537 214.82 262.449 212.779 261.236C212.299 261.048 211.866 260.76 211.507 260.39C211.148 260.021 210.873 259.579 210.699 259.094C210.525 258.609 210.457 258.093 210.499 257.58C210.542 257.067 210.693 256.569 210.944 256.119C211.942 254.389 212.213 252.333 211.698 250.404C211.182 248.474 209.921 246.828 208.193 245.826C206.95 244.82 205.56 243.963 204.287 242.868C200.737 240.147 200.116 237.396 202.305 234.35C204.494 231.303 207.039 230.948 210.796 233.906C212.309 235.266 214.172 236.175 216.175 236.531C218.178 236.886 220.24 236.674 222.128 235.917L226.034 234.527C229.33 233.206 233.001 233.162 236.328 234.404C239.655 235.646 242.398 238.084 244.022 241.241C245.294 243.43 246.123 245.856 247.247 248.103C248.786 251.061 250.679 251.742 253.431 249.819C263.549 242.779 270.828 234.232 269.467 221.129C269.003 214.966 270.339 208.8 273.313 203.382C276.641 197.192 277.575 189.995 275.939 183.161C274.302 176.327 270.208 170.333 264.437 166.321C262.173 165.044 260.393 163.057 259.372 160.667C258.351 158.278 258.145 155.618 258.786 153.1C260.384 143.28 255.236 135.353 249.585 128.018C249.029 127.487 248.357 127.093 247.623 126.867C246.889 126.641 246.112 126.59 245.354 126.717C244.407 126.953 243.726 128.905 243.223 130.177C242.158 133.135 241.537 136.093 240.265 139.051C237.513 144.966 237.306 145.351 241.981 150.172C244.74 152.999 246.343 156.754 246.478 160.701C246.588 161.329 246.573 161.972 246.433 162.594C246.293 163.216 246.031 163.803 245.662 164.323C245.293 164.843 244.825 165.285 244.285 165.623C243.744 165.96 243.142 166.188 242.513 166.292C239.791 166.883 238.401 165.523 237.336 163.038C234.673 156.886 230.442 154.727 223.755 155.792C222.212 156.217 220.64 156.534 219.051 156.738C216.676 156.849 214.299 156.579 212.009 155.939C211.444 155.778 210.917 155.504 210.46 155.134C210.003 154.764 209.626 154.306 209.349 153.787C209.073 153.268 208.905 152.699 208.853 152.113C208.802 151.528 208.869 150.938 209.051 150.379C209.554 148.841 211.388 147.658 212.779 146.534C213.493 146.161 214.281 145.949 215.086 145.913C218.483 145.228 221.672 143.755 224.396 141.613C227.119 139.47 229.301 136.719 230.766 133.579C232.231 130.44 232.939 127 232.831 123.537C232.723 120.075 231.804 116.686 230.146 113.643C225.087 103.291 210.293 99.5644 201.891 106.367C196.831 110.39 196.772 116.128 196.802 121.748C196.802 123.374 197.926 126.036 199.11 126.421C201.139 126.823 203.245 126.465 205.027 125.415C206.929 124.075 208.693 122.549 210.293 120.86C212.424 119.086 214.731 117.903 217.394 120.003C217.994 120.462 218.492 121.04 218.859 121.701C219.225 122.362 219.452 123.091 219.524 123.843C219.596 124.595 219.512 125.354 219.278 126.072C219.044 126.79 218.665 127.453 218.163 128.018C216.769 130.539 214.852 132.732 212.541 134.451C210.229 136.17 207.576 137.375 204.761 137.986C199.228 138.991 196.979 142.038 196.891 147.628C196.891 151.651 196.891 155.673 196.891 159.666C196.891 165.966 198.015 167.12 204.228 166.972C208.674 166.728 213.133 166.916 217.542 167.534C221.087 168.328 224.44 169.813 227.41 171.904C230.38 173.995 232.908 176.651 234.85 179.72C237.809 183.802 240.294 184.393 245.028 182.678C246.868 182.17 248.547 181.2 249.904 179.858C251.261 178.517 252.251 176.85 252.78 175.017C252.894 174.357 253.138 173.727 253.499 173.163C253.859 172.599 254.329 172.112 254.88 171.732C255.431 171.352 256.053 171.086 256.708 170.949C257.364 170.812 258.04 170.807 258.697 170.935C259.335 170.999 259.953 171.193 260.511 171.507C261.07 171.82 261.558 172.246 261.944 172.757C262.331 173.268 262.607 173.854 262.756 174.477C262.905 175.1 262.923 175.747 262.81 176.378C262.719 180.902 264.396 185.284 267.484 188.593C268.075 189.11 268.548 189.746 268.872 190.46C269.197 191.175 269.364 191.95 269.364 192.734C269.364 193.518 269.197 194.294 268.872 195.008C268.548 195.722 268.075 196.359 267.484 196.875C265.088 199.123 263.017 198.886 259.674 195.958C258.136 194.182 255.988 193.048 253.654 192.78C251.32 192.511 248.97 193.128 247.07 194.509C244.111 196.017 241.567 197.821 238.697 199.271C235.353 200.986 233.756 200.543 231.803 197.319C229.85 194.095 228.844 191.403 227.069 188.445C224.782 184.341 221.167 181.135 216.818 179.356C212.468 177.577 207.642 177.33 203.133 178.655C201.302 179.014 199.659 180.017 198.503 181.482C197.347 182.946 196.754 184.777 196.831 186.641C196.831 193.769 196.831 200.868 196.831 207.996C196.763 208.736 196.884 209.482 197.183 210.162C197.482 210.843 197.95 211.436 198.542 211.886C199.134 212.336 199.831 212.627 200.567 212.733C201.303 212.839 202.054 212.756 202.749 212.492C205.194 212.262 207.464 211.122 209.108 209.298C210.752 207.473 211.65 205.098 211.625 202.643C211.625 201.282 211.625 199.892 211.625 198.531C211.625 195.781 212.453 193.473 215.649 193.03C218.844 192.586 220.53 194.331 221.566 197.112C222.362 199.734 223.351 202.295 224.525 204.772C225.221 206.334 226.253 207.724 227.548 208.841C228.842 209.959 230.368 210.777 232.015 211.237C233.663 211.698 235.391 211.789 237.078 211.505C238.765 211.221 240.368 210.568 241.774 209.593C244.4 207.781 246.91 205.806 249.289 203.678C249.966 203.041 250.804 202.602 251.713 202.408C252.622 202.214 253.567 202.272 254.445 202.577C255.323 202.882 256.101 203.421 256.694 204.137C257.287 204.852 257.673 205.716 257.81 206.636C257.915 207.635 257.818 208.645 257.523 209.606C257.228 210.567 256.742 211.458 256.094 212.226C254.231 213.759 253.04 215.958 252.775 218.356C252.509 220.753 253.191 223.16 254.673 225.062C255.041 225.889 255.19 226.796 255.108 227.697C255.025 228.598 254.712 229.463 254.2 230.209C252.475 231.405 250.36 231.902 248.283 231.599C246.892 231.599 245.62 229.972 244.318 229.026C232.483 220.567 219.998 216.396 205.53 221.986C200.471 223.968 197.334 227.015 197.127 232.486C197.187 237.426 197.305 242.365 197.305 247.305Z" fill="url(#paint1_linear_3_8)"/>
<defs>
<linearGradient id="paint0_linear_3_8" x1="137.645" y1="91" x2="137.645" y2="284.933" gradientUnits="userSpaceOnUse">
<stop stop-color="#0133CE"/>
<stop offset="1" stop-color="#011A68"/>
</linearGradient>
<linearGradient id="paint1_linear_3_8" x1="240.081" y1="91.1899" x2="240.081" y2="284.74" gradientUnits="userSpaceOnUse">
<stop stop-color="#0133CE"/>
<stop offset="1" stop-color="#011A68"/>
</linearGradient>
</defs>
</svg>
