<svg width="238" height="49" viewBox="0 0 238 49" fill="none" xmlns="http://www.w3.org/2000/svg">
<path d="M18.2383 23.9517C18.2383 28.7796 18.2383 33.6056 18.2383 38.4298C18.2383 39.1179 18.1051 39.8005 18.0551 40.4831C18.0297 40.9056 17.8718 41.3095 17.6037 41.6372C17.3357 41.9649 16.9711 42.1999 16.5619 42.3088C15.6648 42.6296 14.7087 42.7515 13.7598 42.6663C12.8109 42.581 11.8919 42.2905 11.0664 41.8149C10.3275 41.4226 9.66704 40.8978 9.11804 40.2666C8.4885 39.4987 7.66691 38.9109 6.73667 38.563C5.00915 37.9691 3.53013 36.8144 2.53521 35.2827C1.54029 33.7511 1.08672 31.9306 1.24674 30.1114C1.25985 29.5742 1.13364 29.0427 0.880371 28.5687C-0.651702 25.278 -0.179868 21.9428 2.26257 19.2958C2.89763 18.6172 3.28829 17.7463 3.37277 16.8208C3.68917 13.8742 5.03806 11.6211 7.76915 10.2782C8.26771 9.97436 8.72009 9.6006 9.11249 9.16834C9.40669 8.89088 9.62318 8.53017 9.90073 8.23051C10.8418 7.16513 12.1477 6.49055 13.5613 6.33957C14.975 6.18859 16.394 6.57216 17.5389 7.41476C17.7849 7.59206 17.9797 7.83119 18.1035 8.10795C18.2273 8.38471 18.2757 8.68927 18.2439 8.99076C18.2402 13.9666 18.2383 18.9536 18.2383 23.9517ZM17.2502 35.1613C17.2502 34.3122 17.2946 33.4465 17.2502 32.5919C17.2058 31.7374 16.7784 31.3323 15.8958 31.138C15.1908 30.9771 14.5247 30.683 13.8308 30.4721C13.4962 30.3248 13.1283 30.2693 12.765 30.3112C11.5301 30.6845 10.3147 31.1197 9.12359 31.6153C8.61233 31.8836 8.13833 32.2175 7.71364 32.6086C7.53944 32.7603 7.31405 32.8401 7.08316 32.8319C6.85227 32.8236 6.63315 32.728 6.47022 32.5642C6.26483 32.3811 6.0761 31.8761 6.18712 31.6985C6.84213 30.5886 6.53128 29.6841 5.85961 28.7685C5.77432 28.6845 5.70752 28.5836 5.66347 28.4723C5.61942 28.3609 5.59909 28.2417 5.6038 28.1221C5.6085 28.0024 5.63812 27.8851 5.69078 27.7776C5.74343 27.6701 5.81795 27.5748 5.90957 27.4977C5.99807 27.4013 6.10495 27.3235 6.22393 27.269C6.34291 27.2144 6.4716 27.1842 6.60242 27.1801C6.73325 27.1759 6.86359 27.198 6.98578 27.2449C7.10797 27.2918 7.21955 27.3627 7.31397 27.4533C7.56376 27.6586 7.76915 27.9139 8.00229 28.1303C8.35096 28.4744 8.7876 28.7159 9.26441 28.8285C9.74122 28.941 10.2398 28.9203 10.7056 28.7685C11.1472 28.6493 11.5424 28.3995 11.8395 28.052C12.1367 27.7044 12.3219 27.2752 12.3709 26.8207C12.4145 26.5881 12.472 26.3583 12.543 26.1326C12.5679 26.0137 12.6172 25.9013 12.6877 25.8025C12.7583 25.7037 12.8486 25.6207 12.953 25.5586C13.0574 25.4965 13.1735 25.4568 13.294 25.4419C13.4146 25.427 13.5369 25.4373 13.6532 25.4722C13.7729 25.4769 13.8905 25.506 13.9985 25.5579C14.1065 25.6097 14.2028 25.6832 14.2813 25.7736C14.3599 25.8641 14.419 25.9697 14.4552 26.084C14.4913 26.1982 14.5036 26.3186 14.4914 26.4378C14.4914 26.7818 14.4081 27.1203 14.3915 27.4644C14.3582 27.6359 14.3611 27.8125 14.4 27.9828C14.439 28.1531 14.5131 28.3134 14.6176 28.4534C14.7221 28.5934 14.8548 28.7101 15.007 28.7959C15.1592 28.8817 15.3277 28.9347 15.5017 28.9516C15.7737 29.0126 16.0568 29.057 16.3288 29.1014C16.8228 29.1902 17.1725 28.9794 17.1781 28.4799C17.2235 27.0606 17.1939 25.6398 17.0893 24.2236C16.9782 23.1137 16.2233 22.5588 15.1131 22.5588C14.3316 22.5277 13.5578 22.7233 12.885 23.1221C12.2123 23.5209 11.6694 24.1058 11.3218 24.8063C11.0997 25.228 10.9332 25.6775 10.7112 26.0937C10.2949 26.8595 9.97289 26.9539 9.1902 26.5488C8.79053 26.3434 8.40751 26.1048 8.01339 25.8717C6.98091 25.2613 6.0872 25.2336 5.2712 26.1159C5.1255 26.3005 4.91362 26.4211 4.68047 26.4522C4.44732 26.4833 4.21122 26.4224 4.02223 26.2824C3.32836 25.8662 3.2673 25.2835 3.88346 24.6176C4.19002 24.3629 4.42092 24.0291 4.55108 23.6524C4.68124 23.2758 4.70567 22.8707 4.62174 22.4811C4.59511 22.3596 4.59322 22.234 4.61618 22.1118C4.63913 21.9895 4.68647 21.8732 4.75536 21.7696C4.82425 21.666 4.91329 21.5774 5.01717 21.509C5.12105 21.4405 5.23765 21.3937 5.36002 21.3713C5.91512 21.2048 6.23708 21.4711 6.49797 21.9262C7.64703 24.0349 8.75723 24.1459 10.3837 22.3923C11.7326 20.9662 13.3479 20.2115 15.3796 20.5888C16.7062 20.833 17.1947 20.4445 17.2336 19.096C17.2958 18.1996 17.2865 17.2996 17.2058 16.4046C17.0835 16.011 16.836 15.6681 16.5009 15.428C16.238 15.279 15.9502 15.1794 15.6516 15.1338C15.1264 15.0054 14.6347 14.7661 14.2096 14.4321C13.7845 14.098 13.4358 13.677 13.1869 13.1971C13.0315 12.9707 12.9685 12.6935 13.0108 12.4222C13.0532 12.1509 13.1976 11.906 13.4145 11.7377C13.9141 11.3381 14.3415 11.5989 14.7523 11.9208C15.1631 12.2427 15.4795 12.5312 15.8625 12.8031C16.7562 13.4247 17.1392 13.2471 17.2169 12.1761C17.2169 11.8986 17.2447 11.6211 17.2447 11.3381C17.277 10.6698 17.057 10.0136 16.6283 9.49977C16.1996 8.98589 15.5934 8.65172 14.9299 8.56347C14.203 8.44359 13.4569 8.5328 12.7788 8.82069C12.1006 9.10857 11.5183 9.58327 11.0997 10.1894C10.6681 10.7083 10.3981 11.3423 10.3231 12.013C10.2482 12.6837 10.3715 13.3616 10.6779 13.9629C10.9634 14.6554 11.4178 15.2654 11.9995 15.7374C12.5812 16.2095 13.2719 16.5285 14.0085 16.6654C14.5081 16.7709 14.9133 17.0206 14.8744 17.6144C14.8752 17.7455 14.8498 17.8755 14.7998 17.9967C14.7497 18.1179 14.6761 18.2279 14.5831 18.3204C14.4901 18.4129 14.3796 18.4859 14.2581 18.5352C14.1365 18.5845 14.0064 18.6092 13.8752 18.6077C13.4291 18.6544 12.9781 18.6225 12.543 18.5134C11.0775 18.0916 10.3226 18.3746 9.65094 19.7509C9.4289 20.2115 9.13469 20.4945 8.59625 20.3668C8.0578 20.2392 7.87462 19.8119 7.88572 19.2903C7.89963 18.4825 8.22823 17.712 8.80163 17.1427C9.00187 16.9592 9.14385 16.721 9.20996 16.4576C9.27607 16.1943 9.26341 15.9173 9.17355 15.661C8.91821 14.9063 8.61845 14.1627 8.3409 13.4413C8.15772 12.9696 7.83021 12.8364 7.44719 13.1971C6.13716 14.4291 5.2268 15.8774 5.5099 17.7587C5.6096 18.2578 5.55709 18.7754 5.35914 19.2444C5.1612 19.7134 4.82695 20.1121 4.3997 20.389C3.26325 21.2098 2.48518 22.4352 2.22594 23.8126C1.9667 25.19 2.24605 26.6143 3.0064 27.7918C3.42373 28.4267 3.58626 29.1955 3.46158 29.9449C3.26563 30.9689 3.36218 32.0273 3.74015 32.999C4.11813 33.9706 4.76225 34.8162 5.59871 35.4387C6.9254 36.5486 7.26401 36.482 8.00229 34.9393C8.74057 33.3966 9.83967 32.7973 11.3717 33.1358C11.6857 33.2117 11.9923 33.3157 12.2877 33.4465C12.6135 33.5956 12.9729 33.6562 13.3296 33.6221C13.6863 33.588 14.0277 33.4605 14.3193 33.2523C14.4416 33.1644 14.5695 33.0847 14.7023 33.0137C14.9008 32.8774 15.1437 32.8217 15.3818 32.8577C15.6199 32.8938 15.8354 33.019 15.9846 33.2079C16.168 33.3956 16.2707 33.6475 16.2707 33.9099C16.2707 34.1723 16.168 34.4242 15.9846 34.6119C15.7445 34.8594 15.474 35.0757 15.1797 35.2556C14.1472 35.916 14.1306 35.9326 14.5081 37.1202C14.7356 37.836 14.4581 38.391 13.792 38.3799C13.6183 38.365 13.45 38.3126 13.2986 38.2264C13.1472 38.1402 13.0163 38.0221 12.9149 37.8804C12.6792 37.382 12.4933 36.8615 12.3598 36.3266C12.3097 36.1489 12.2243 35.9831 12.1088 35.8391C11.9932 35.695 11.8499 35.5757 11.6873 35.4882C11.5246 35.4007 11.346 35.3468 11.1621 35.3297C10.9782 35.3126 10.7928 35.3327 10.6168 35.3888C9.88408 35.5664 9.60098 36.0769 9.76196 36.9371C9.80877 37.147 9.87187 37.3529 9.95069 37.553C10.3185 38.4473 10.9551 39.2053 11.7725 39.7222C12.5899 40.2391 13.5477 40.4895 14.5136 40.4387C16.0124 40.4387 16.9283 39.7117 17.1281 38.2189C17.2058 37.2201 17.2058 36.199 17.2502 35.1613Z" fill="black"/>
<path d="M19.3485 24.5344C19.3485 19.3846 19.3485 14.2349 19.3485 9.08512C19.3485 7.79768 19.6705 7.32044 20.8639 6.8654C23.534 5.75553 26.0264 6.427 27.8249 8.75771C28.4151 9.52852 29.1748 10.1532 30.0453 10.5834C32.6431 11.9319 33.7478 14.2626 34.0142 17.0539C34.0753 17.8998 34.4516 18.6919 35.0689 19.2736C36.1784 20.4328 36.9229 21.8922 37.2101 23.4706C37.4973 25.0491 37.3144 26.677 36.6843 28.1525C36.3076 28.9502 36.1178 29.8232 36.1292 30.7052C36.157 32.3979 35.6567 34.0573 34.6977 35.4526C33.7387 36.8479 32.3686 37.9099 30.778 38.4909C29.8236 38.8595 28.9751 39.458 28.3078 40.2333C27.4613 41.2749 26.3155 42.0319 25.0251 42.402C23.7347 42.7722 22.3617 42.7377 21.0915 42.3032C19.7093 41.8981 19.3596 41.4098 19.3596 39.9781C19.3522 34.8283 19.3485 29.6804 19.3485 24.5344ZM20.3199 35.633H20.2422C20.2422 36.3877 20.2422 37.1424 20.2422 37.8915C20.2242 38.2009 20.2674 38.5108 20.3692 38.8035C20.4711 39.0962 20.6297 39.366 20.8359 39.5974C21.0421 39.8288 21.2919 40.0173 21.571 40.1521C21.8502 40.287 22.1531 40.3655 22.4626 40.3832C23.3833 40.4782 24.3123 40.3176 25.1477 39.9192C25.983 39.5207 26.6923 38.8998 27.1976 38.1246C27.4661 37.5914 27.6157 37.0064 27.6362 36.4099C27.6695 35.7662 27.2309 35.3944 26.587 35.3C26.2551 35.2364 25.9113 35.3029 25.6271 35.4857C25.3429 35.6686 25.14 35.9538 25.0605 36.2822C24.8441 36.9097 24.5729 37.5169 24.25 38.0969C24.028 38.4909 23.6061 38.4742 23.2231 38.2467C23.1332 38.2114 23.0518 38.1573 22.9845 38.088C22.9172 38.0187 22.8655 37.9358 22.8329 37.8448C22.8003 37.7539 22.7875 37.657 22.7955 37.5608C22.8034 37.4645 22.8319 37.371 22.879 37.2867C23.0662 36.962 23.117 36.5764 23.0203 36.2144C22.9235 35.8523 22.687 35.5435 22.3627 35.3555C22.1296 35.1668 21.8687 35.0059 21.63 34.8006C20.9639 34.29 20.8473 33.774 21.2581 33.2024C21.6688 32.6308 22.1462 32.5642 22.8512 33.1191C23.1349 33.3743 23.4845 33.5449 23.8603 33.6116C24.236 33.6783 24.623 33.6384 24.9772 33.4965L25.71 33.2357C26.3284 32.9878 27.0171 32.9796 27.6413 33.2126C28.2655 33.4456 28.7803 33.903 29.085 34.4954C29.3237 34.906 29.4791 35.3611 29.69 35.7828C29.9787 36.3377 30.3339 36.4654 30.8502 36.1047C32.7486 34.7839 34.1142 33.1802 33.8588 30.7218C33.7718 29.5655 34.0225 28.4089 34.5804 27.3923C35.2048 26.2309 35.3801 24.8806 35.073 23.5984C34.766 22.3162 33.9979 21.1917 32.9151 20.439C32.4904 20.1993 32.1565 19.8265 31.9649 19.3782C31.7732 18.9299 31.7346 18.4309 31.8549 17.9584C32.1547 16.1161 31.1888 14.6289 30.1285 13.2526C30.0243 13.153 29.8983 13.0791 29.7605 13.0367C29.6227 12.9943 29.4769 12.9847 29.3348 13.0085C29.1571 13.0529 29.0295 13.4191 28.9351 13.6577C28.7352 14.2127 28.6187 14.7676 28.38 15.3225C27.8637 16.4324 27.8249 16.5045 28.7019 17.4091C29.2195 17.9395 29.5204 18.644 29.5457 19.3846C29.5664 19.5024 29.5635 19.6231 29.5372 19.7397C29.5109 19.8563 29.4618 19.9666 29.3926 20.0641C29.3235 20.1617 29.2356 20.2445 29.1342 20.3079C29.0328 20.3713 28.9199 20.414 28.8019 20.4334C28.2912 20.5444 28.0303 20.2892 27.8304 19.823C27.3308 18.6688 26.5371 18.2637 25.2825 18.4634C24.9929 18.5434 24.6979 18.6027 24.3999 18.641C23.9544 18.6618 23.5084 18.6112 23.0788 18.4912C22.9727 18.4608 22.8739 18.4094 22.7882 18.34C22.7024 18.2706 22.6315 18.1847 22.5797 18.0873C22.5279 17.99 22.4963 17.8832 22.4866 17.7733C22.477 17.6635 22.4896 17.5528 22.5237 17.4479C22.6181 17.1593 22.9622 16.9374 23.2231 16.7265C23.3572 16.6566 23.505 16.6168 23.6561 16.61C24.2934 16.4815 24.8917 16.2051 25.4026 15.8032C25.9136 15.4013 26.323 14.885 26.5979 14.296C26.8728 13.707 27.0055 13.0616 26.9853 12.412C26.9651 11.7623 26.7925 11.1265 26.4815 10.5557C25.5323 8.61343 22.7568 7.91421 21.1804 9.19055C20.2311 9.94526 20.22 11.0218 20.2256 12.0762C20.2256 12.3814 20.4365 12.8808 20.6586 12.953C21.0392 13.0283 21.4344 12.9612 21.7688 12.7643C22.1256 12.5129 22.4566 12.2266 22.7568 11.9097C23.1565 11.5768 23.5895 11.3548 24.0891 11.7488C24.2016 11.835 24.2951 11.9435 24.3639 12.0675C24.4326 12.1914 24.4751 12.3282 24.4886 12.4693C24.5021 12.6104 24.4865 12.7528 24.4426 12.8875C24.3987 13.0223 24.3275 13.1466 24.2334 13.2526C23.9718 13.7255 23.6121 14.1371 23.1784 14.4596C22.7447 14.7822 22.2471 15.0083 21.7188 15.1228C20.6808 15.3114 20.2589 15.883 20.2422 16.9318C20.2422 17.6865 20.2422 18.4412 20.2422 19.1904C20.2422 20.3724 20.4532 20.5888 21.6189 20.5611C22.453 20.5154 23.2895 20.5507 24.1168 20.6665C24.7819 20.8155 25.411 21.0942 25.9682 21.4865C26.5254 21.8788 26.9998 22.3771 27.3642 22.9528C27.9193 23.7186 28.3855 23.8296 29.2737 23.5078C29.6189 23.4126 29.9338 23.2304 30.1884 22.9788C30.4431 22.7272 30.6289 22.4144 30.7281 22.0705C30.7494 21.9467 30.7952 21.8284 30.8629 21.7226C30.9306 21.6168 31.0187 21.5255 31.1221 21.4542C31.2255 21.3829 31.3421 21.3329 31.4651 21.3072C31.5881 21.2816 31.7149 21.2807 31.8383 21.3047C31.9579 21.3166 32.0738 21.3531 32.1786 21.4119C32.2835 21.4707 32.375 21.5506 32.4475 21.6465C32.5199 21.7424 32.5718 21.8522 32.5997 21.9691C32.6277 22.086 32.6311 22.2075 32.6098 22.3257C32.5928 23.1747 32.9074 23.9968 33.4869 24.6176C33.5977 24.7145 33.6865 24.8339 33.7473 24.9679C33.8081 25.1019 33.8396 25.2474 33.8396 25.3945C33.8396 25.5417 33.8081 25.6871 33.7473 25.8211C33.6865 25.9551 33.5977 26.0745 33.4869 26.1714C33.0373 26.5932 32.6487 26.5488 32.0214 25.9994C31.733 25.6662 31.3299 25.4534 30.892 25.4031C30.4542 25.3527 30.0133 25.4685 29.6567 25.7275C29.1016 26.0105 28.6242 26.349 28.0858 26.6209C27.4585 26.9428 27.1588 26.8595 26.7924 26.2547C26.426 25.6498 26.2373 25.1448 25.9042 24.5899C25.4752 23.8198 24.797 23.2184 23.9809 22.8846C23.1648 22.5508 22.2594 22.5044 21.4135 22.753C21.0699 22.8204 20.7617 23.0085 20.5448 23.2833C20.3279 23.5582 20.2166 23.9016 20.2311 24.2514C20.2311 25.5887 20.2311 26.9206 20.2311 28.258C20.2182 28.3968 20.2409 28.5367 20.2971 28.6644C20.3532 28.7921 20.441 28.9033 20.5521 28.9877C20.6631 29.0721 20.7939 29.1268 20.932 29.1467C21.0701 29.1666 21.2109 29.151 21.3413 29.1014C21.8001 29.0583 22.226 28.8444 22.5344 28.5021C22.8429 28.1599 23.0114 27.7142 23.0066 27.2535C23.0066 26.9983 23.0066 26.7374 23.0066 26.4822C23.0066 25.9661 23.1621 25.5332 23.7616 25.45C24.3611 25.3668 24.6775 25.6942 24.8718 26.2158C25.0211 26.7079 25.2066 27.1883 25.4269 27.6531C25.5574 27.9462 25.7511 28.2068 25.994 28.4165C26.237 28.6261 26.5232 28.7796 26.8322 28.866C27.1413 28.9524 27.4656 28.9696 27.7821 28.9162C28.0986 28.8629 28.3994 28.7405 28.6631 28.5576C29.1559 28.2176 29.6268 27.847 30.073 27.4478C30.2 27.3283 30.3574 27.2459 30.5279 27.2095C30.6985 27.1731 30.8757 27.184 31.0405 27.2412C31.2052 27.2984 31.3512 27.3996 31.4624 27.5339C31.5737 27.6681 31.6461 27.8302 31.6717 28.0027C31.6916 28.1902 31.6733 28.3797 31.6179 28.56C31.5626 28.7402 31.4714 28.9074 31.3498 29.0515C31.0003 29.3391 30.7768 29.7518 30.7271 30.2016C30.6773 30.6514 30.8051 31.1029 31.0833 31.4599C31.1523 31.615 31.1803 31.7852 31.1648 31.9543C31.1492 32.1233 31.0906 32.2855 30.9945 32.4255C30.6709 32.6499 30.2741 32.7431 29.8843 32.6863C29.6234 32.6863 29.3847 32.3811 29.1405 32.2035C26.9201 30.6164 24.5776 29.834 21.8631 30.8828C20.9139 31.2546 20.3255 31.8262 20.2866 32.8528C20.2977 33.7795 20.3199 34.7062 20.3199 35.633Z" fill="black"/>
<mask id="path-3-inside-1_3_7" fill="white">
<path d="M72.4458 20.053C72.4458 23.7978 70.809 26.2592 67.5353 27.4373C69.3705 28.1193 70.7532 29.2291 71.6832 30.7667C72.4892 32.1307 72.8922 33.7179 72.8922 35.5284V37.5H61.8064V12.1478H62.7736C66.0473 12.1478 68.4591 12.7679 70.0091 14.0079C71.6336 15.3099 72.4458 17.3249 72.4458 20.053ZM48.7118 12.185H58.7188V37.5H48.7118V12.185ZM78.0259 12.185H88.0328V37.5H78.0259V12.185ZM92.8875 32.6081C92.8875 31.4797 93.3587 30.2769 94.3011 28.9997L95.0637 27.9953L108.493 12.185H117.607V17.5419C117.607 18.8935 116.857 20.4994 115.357 22.3594L101.667 37.5H92.8875V32.6081ZM92.8875 15.4587C92.8875 13.8591 93.0859 12.7679 93.4827 12.185H104.866L95.3055 22.3594H94.7475C93.5075 21.6402 92.8875 19.3399 92.8875 15.4587ZM117.607 34.2078C117.607 35.8322 117.421 36.9296 117.049 37.5H105.833L115.766 26.749C116.795 27.3319 117.39 28.7207 117.551 30.9155C117.601 31.5975 117.626 32.3167 117.626 33.0731L117.607 34.2078ZM150.399 12.1478H160.685V29.3717C160.685 32.1121 160.059 34.1272 158.807 35.4168C157.43 36.8056 155.18 37.5 152.055 37.5H150.399V12.1478ZM122.797 12.1478H133.083V37.5H131.427C126.852 37.5 124.124 35.95 123.243 32.8499C122.945 31.8455 122.797 30.6861 122.797 29.3717V12.1478ZM136.579 12.1664H146.921V37.5186H136.579V12.1664ZM179.955 12.185H181.629C186.193 12.185 188.914 13.7289 189.795 16.8165C190.092 17.8333 190.241 18.9989 190.241 20.3134V37.5H179.955V12.185ZM166.228 20.3134C166.228 17.5729 166.855 15.5641 168.107 14.2869C169.483 12.8857 171.728 12.185 174.84 12.185H176.514V37.5H166.228V20.3134ZM208.376 12.185H210.051C214.614 12.185 217.336 13.7289 218.216 16.8165C218.514 17.8333 218.662 18.9989 218.662 20.3134V37.5H208.376V12.185ZM194.873 12.185H204.88V37.5H194.873V12.185ZM224.001 12.185H234.008V37.5H224.001V12.185Z"/>
</mask>
<path d="M67.5353 27.4373L66.5487 24.6955L59.0518 27.3932L66.5203 30.1687L67.5353 27.4373ZM71.6832 30.7667L74.1918 29.2843L74.1842 29.2714L74.1765 29.2586L71.6832 30.7667ZM72.8922 37.5V40.4139H75.8061V37.5H72.8922ZM61.8064 37.5H58.8925V40.4139H61.8064V37.5ZM61.8064 12.1478V9.23393H58.8925V12.1478H61.8064ZM70.0091 14.0079L71.8316 11.7342L71.8295 11.7325L70.0091 14.0079ZM48.7118 12.185V9.27113H45.7979V12.185H48.7118ZM58.7188 12.185H61.6327V9.27113H58.7188V12.185ZM58.7188 37.5V40.4139H61.6327V37.5H58.7188ZM48.7118 37.5H45.7979V40.4139H48.7118V37.5ZM72.4458 20.053H69.5319C69.5319 21.504 69.2171 22.4546 68.7918 23.0941C68.3781 23.7162 67.7046 24.2795 66.5487 24.6955L67.5353 27.4373L68.5219 30.1791C70.6397 29.417 72.4214 28.1606 73.6446 26.3212C74.8561 24.4993 75.3597 22.3467 75.3597 20.053H72.4458ZM67.5353 27.4373L66.5203 30.1687C67.7976 30.6433 68.6315 31.3516 69.1898 32.2748L71.6832 30.7667L74.1765 29.2586C72.8748 27.1066 70.9435 25.5952 68.5504 24.7059L67.5353 27.4373ZM71.6832 30.7667L69.1745 32.2491C69.6792 33.1031 69.9783 34.1637 69.9783 35.5284H72.8922H75.8061C75.8061 33.2722 75.2992 31.1583 74.1918 29.2843L71.6832 30.7667ZM72.8922 35.5284H69.9783V37.5H72.8922H75.8061V35.5284H72.8922ZM72.8922 37.5V34.5861H61.8064V37.5V40.4139H72.8922V37.5ZM61.8064 37.5H64.7203V12.1478H61.8064H58.8925V37.5H61.8064ZM61.8064 12.1478V15.0618H62.7736V12.1478V9.23393H61.8064V12.1478ZM62.7736 12.1478V15.0618C65.7814 15.0618 67.3972 15.6499 68.1888 16.2833L70.0091 14.0079L71.8295 11.7325C69.5211 9.88578 66.3132 9.23393 62.7736 9.23393V12.1478ZM70.0091 14.0079L68.1867 16.2816C68.9193 16.8687 69.5319 17.9132 69.5319 20.053H72.4458H75.3597C75.3597 16.7367 74.3479 13.7511 71.8316 11.7342L70.0091 14.0079ZM48.7118 12.185V15.099H58.7188V12.185V9.27113H48.7118V12.185ZM58.7188 12.185H55.8049V37.5H58.7188H61.6327V12.185H58.7188ZM58.7188 37.5V34.5861H48.7118V37.5V40.4139H58.7188V37.5ZM48.7118 37.5H51.6258V12.185H48.7118H45.7979V37.5H48.7118ZM78.0259 12.185V9.27113H75.1119V12.185H78.0259ZM88.0328 12.185H90.9467V9.27113H88.0328V12.185ZM88.0328 37.5V40.4139H90.9467V37.5H88.0328ZM78.0259 37.5H75.1119V40.4139H78.0259V37.5ZM78.0259 12.185V15.099H88.0328V12.185V9.27113H78.0259V12.185ZM88.0328 12.185H85.1189V37.5H88.0328H90.9467V12.185H88.0328ZM88.0328 37.5V34.5861H78.0259V37.5V40.4139H88.0328V37.5ZM78.0259 37.5H80.9398V12.185H78.0259H75.1119V37.5H78.0259ZM94.3011 28.9997L91.9803 27.2376L91.9682 27.2535L91.9564 27.2696L94.3011 28.9997ZM95.0637 27.9953L92.8428 26.1088L92.7912 26.1696L92.7429 26.2332L95.0637 27.9953ZM108.493 12.185V9.27113H107.145L106.272 10.2986L108.493 12.185ZM117.607 12.185H120.521V9.27113H117.607V12.185ZM115.357 22.3594L117.518 24.3137L117.573 24.2528L117.625 24.1889L115.357 22.3594ZM101.667 37.5V40.4139H102.961L103.828 39.4543L101.667 37.5ZM92.8875 37.5H89.9736V40.4139H92.8875V37.5ZM93.4827 12.185V9.27113H91.9414L91.074 10.5451L93.4827 12.185ZM104.866 12.185L106.99 14.1804L111.603 9.27113H104.866V12.185ZM95.3055 22.3594V25.2733H96.5659L97.429 24.3548L95.3055 22.3594ZM94.7475 22.3594L93.2855 24.88L93.9636 25.2733H94.7475V22.3594ZM117.607 34.2078L114.694 34.16L114.693 34.1839V34.2078H117.607ZM117.049 37.5V40.4139H118.628L119.49 39.0918L117.049 37.5ZM105.833 37.5L103.693 35.5226L99.174 40.4139H105.833V37.5ZM115.766 26.749L117.202 24.2134L115.192 23.0757L113.625 24.7717L115.766 26.749ZM117.551 30.9155L120.458 30.7041L120.458 30.7021L117.551 30.9155ZM117.626 33.0731L120.539 33.1209L120.54 33.097V33.0731H117.626ZM92.8875 32.6081H95.8014C95.8014 32.3103 95.9269 31.704 96.6458 30.7298L94.3011 28.9997L91.9564 27.2696C90.7904 28.8498 89.9736 30.6492 89.9736 32.6081H92.8875ZM94.3011 28.9997L96.6219 30.7618L97.3845 29.7573L95.0637 27.9953L92.7429 26.2332L91.9803 27.2376L94.3011 28.9997ZM95.0637 27.9953L97.2846 29.8817L110.714 14.0715L108.493 12.185L106.272 10.2986L92.8428 26.1088L95.0637 27.9953ZM108.493 12.185V15.099H117.607V12.185V9.27113H108.493V12.185ZM117.607 12.185H114.693V17.5419H117.607H120.521V12.185H117.607ZM117.607 17.5419H114.693C114.693 17.8817 114.458 18.8321 113.089 20.5299L115.357 22.3594L117.625 24.1889C119.256 22.1667 120.521 19.9054 120.521 17.5419H117.607ZM115.357 22.3594L113.195 20.4051L99.5054 35.5457L101.667 37.5L103.828 39.4543L117.518 24.3137L115.357 22.3594ZM101.667 37.5V34.5861H92.8875V37.5V40.4139H101.667V37.5ZM92.8875 37.5H95.8014V32.6081H92.8875H89.9736V37.5H92.8875ZM92.8875 15.4587H95.8014C95.8014 14.7642 95.8456 14.2784 95.9032 13.9618C95.9668 13.6122 96.0159 13.642 95.8913 13.825L93.4827 12.185L91.074 10.5451C90.5527 11.3109 90.3042 12.1777 90.1694 12.9193C90.0285 13.6939 89.9736 14.5535 89.9736 15.4587H92.8875ZM93.4827 12.185V15.099H104.866V12.185V9.27113H93.4827V12.185ZM104.866 12.185L102.743 10.1896L93.182 20.364L95.3055 22.3594L97.429 24.3548L106.99 14.1804L104.866 12.185ZM95.3055 22.3594V19.4455H94.7475V22.3594V25.2733H95.3055V22.3594ZM94.7475 22.3594L96.2095 19.8388C96.5796 20.0534 96.4011 20.2088 96.166 19.3364C95.9511 18.5391 95.8014 17.2822 95.8014 15.4587H92.8875H89.9736C89.9736 17.5164 90.1339 19.3503 90.539 20.8532C90.9239 22.2811 91.6754 23.9461 93.2855 24.88L94.7475 22.3594ZM117.607 34.2078H114.693C114.693 34.9238 114.651 35.4291 114.595 35.7622C114.531 36.1361 114.481 36.104 114.608 35.9082L117.049 37.5L119.49 39.0918C119.99 38.3256 120.218 37.4596 120.341 36.7361C120.47 35.9717 120.521 35.1161 120.521 34.2078H117.607ZM117.049 37.5V34.5861H105.833V37.5V40.4139H117.049V37.5ZM105.833 37.5L107.974 39.4774L117.906 28.7264L115.766 26.749L113.625 24.7717L103.693 35.5226L105.833 37.5ZM115.766 26.749L114.33 29.2847C114.152 29.184 114.189 29.1031 114.306 29.3756C114.432 29.6712 114.579 30.22 114.645 31.1289L117.551 30.9155L120.458 30.7021C120.284 28.3386 119.596 25.5694 117.202 24.2134L115.766 26.749ZM117.551 30.9155L114.645 31.1269C114.689 31.7316 114.712 32.38 114.712 33.0731H117.626H120.54C120.54 32.2535 120.513 31.4634 120.458 30.7041L117.551 30.9155ZM117.626 33.0731L114.712 33.0254L114.694 34.16L117.607 34.2078L120.521 34.2555L120.539 33.1209L117.626 33.0731ZM150.399 12.1478V9.23393H147.486V12.1478H150.399ZM160.685 12.1478H163.599V9.23393H160.685V12.1478ZM158.807 35.4168L160.876 37.468L160.887 37.4575L160.897 37.4468L158.807 35.4168ZM150.399 37.5H147.486V40.4139H150.399V37.5ZM122.797 12.1478V9.23393H119.883V12.1478H122.797ZM133.083 12.1478H135.997V9.23393H133.083V12.1478ZM133.083 37.5V40.4139H135.997V37.5H133.083ZM123.243 32.8499L126.046 32.0539L126.042 32.038L126.037 32.0221L123.243 32.8499ZM136.579 12.1664V9.25253H133.666V12.1664H136.579ZM146.921 12.1664H149.835V9.25253H146.921V12.1664ZM146.921 37.5186V40.4325H149.835V37.5186H146.921ZM136.579 37.5186H133.666V40.4325H136.579V37.5186ZM150.399 12.1478V15.0618H160.685V12.1478V9.23393H150.399V12.1478ZM160.685 12.1478H157.772V29.3717H160.685H163.599V12.1478H160.685ZM160.685 29.3717H157.772C157.772 31.7427 157.221 32.8673 156.716 33.3867L158.807 35.4168L160.897 37.4468C162.898 35.387 163.599 32.4816 163.599 29.3717H160.685ZM158.807 35.4168L156.737 33.3656C156.158 33.9495 154.851 34.5861 152.055 34.5861V37.5V40.4139C155.509 40.4139 158.702 39.6617 160.876 37.468L158.807 35.4168ZM152.055 37.5V34.5861H150.399V37.5V40.4139H152.055V37.5ZM150.399 37.5H153.313V12.1478H150.399H147.486V37.5H150.399ZM122.797 12.1478V15.0618H133.083V12.1478V9.23393H122.797V12.1478ZM133.083 12.1478H130.169V37.5H133.083H135.997V12.1478H133.083ZM133.083 37.5V34.5861H131.427V37.5V40.4139H133.083V37.5ZM131.427 37.5V34.5861C129.428 34.5861 128.158 34.2411 127.389 33.804C126.71 33.418 126.284 32.8905 126.046 32.0539L123.243 32.8499L120.44 33.646C121.083 35.9094 122.461 37.7069 124.51 38.871C126.469 39.9839 128.851 40.4139 131.427 40.4139V37.5ZM123.243 32.8499L126.037 32.0221C125.836 31.3446 125.711 30.4738 125.711 29.3717H122.797H119.883C119.883 30.8984 120.055 32.3464 120.449 33.6777L123.243 32.8499ZM122.797 29.3717H125.711V12.1478H122.797H119.883V29.3717H122.797ZM136.579 12.1664V15.0804H146.921V12.1664V9.25253H136.579V12.1664ZM146.921 12.1664H144.007V37.5186H146.921H149.835V12.1664H146.921ZM146.921 37.5186V34.6047H136.579V37.5186V40.4325H146.921V37.5186ZM136.579 37.5186H139.493V12.1664H136.579H133.666V37.5186H136.579ZM179.955 12.185V9.27113H177.041V12.185H179.955ZM189.795 16.8165L186.993 17.6155L186.995 17.6253L186.998 17.635L189.795 16.8165ZM190.241 37.5V40.4139H193.155V37.5H190.241ZM179.955 37.5H177.041V40.4139H179.955V37.5ZM168.107 14.2869L166.028 12.2449L166.026 12.2467L168.107 14.2869ZM176.514 12.185H179.428V9.27113H176.514V12.185ZM176.514 37.5V40.4139H179.428V37.5H176.514ZM166.228 37.5H163.314V40.4139H166.228V37.5ZM179.955 12.185V15.099H181.629V12.185V9.27113H179.955V12.185ZM181.629 12.185V15.099C183.623 15.099 184.889 15.4425 185.656 15.8775C186.332 16.2614 186.756 16.7854 186.993 17.6155L189.795 16.8165L192.597 16.0175C191.953 13.7599 190.576 11.9682 188.531 10.8083C186.576 9.69946 184.199 9.27113 181.629 9.27113V12.185ZM189.795 16.8165L186.998 17.635C187.202 18.3311 187.327 19.2123 187.327 20.3134H190.241H193.155C193.155 18.7856 192.983 17.3355 192.591 15.998L189.795 16.8165ZM190.241 20.3134H187.327V37.5H190.241H193.155V20.3134H190.241ZM190.241 37.5V34.5861H179.955V37.5V40.4139H190.241V37.5ZM179.955 37.5H182.869V12.185H179.955H177.041V37.5H179.955ZM166.228 20.3134H169.142C169.142 17.9393 169.694 16.8301 170.187 16.327L168.107 14.2869L166.026 12.2467C164.015 14.298 163.314 17.2065 163.314 20.3134H166.228ZM168.107 14.2869L170.186 16.3288C170.767 15.7372 172.067 15.099 174.84 15.099V12.185V9.27113C171.389 9.27113 168.2 10.0341 166.028 12.2449L168.107 14.2869ZM174.84 12.185V15.099H176.514V12.185V9.27113H174.84V12.185ZM176.514 12.185H173.6V37.5H176.514H179.428V12.185H176.514ZM176.514 37.5V34.5861H166.228V37.5V40.4139H176.514V37.5ZM166.228 37.5H169.142V20.3134H166.228H163.314V37.5H166.228ZM208.376 12.185V9.27113H205.463V12.185H208.376ZM218.216 16.8165L215.414 17.6155L215.417 17.6253L215.419 17.635L218.216 16.8165ZM218.662 37.5V40.4139H221.576V37.5H218.662ZM208.376 37.5H205.463V40.4139H208.376V37.5ZM194.873 12.185V9.27113H191.959V12.185H194.873ZM204.88 12.185H207.794V9.27113H204.88V12.185ZM204.88 37.5V40.4139H207.794V37.5H204.88ZM194.873 37.5H191.959V40.4139H194.873V37.5ZM208.376 12.185V15.099H210.051V12.185V9.27113H208.376V12.185ZM210.051 12.185V15.099C212.044 15.099 213.31 15.4425 214.077 15.8775C214.754 16.2614 215.177 16.7854 215.414 17.6155L218.216 16.8165L221.018 16.0175C220.375 13.7599 218.997 11.9682 216.952 10.8083C214.997 9.69946 212.62 9.27113 210.051 9.27113V12.185ZM218.216 16.8165L215.419 17.635C215.623 18.3311 215.749 19.2123 215.749 20.3134H218.662H221.576C221.576 18.7856 221.404 17.3355 221.013 15.998L218.216 16.8165ZM218.662 20.3134H215.749V37.5H218.662H221.576V20.3134H218.662ZM218.662 37.5V34.5861H208.376V37.5V40.4139H218.662V37.5ZM208.376 37.5H211.29V12.185H208.376H205.463V37.5H208.376ZM194.873 12.185V15.099H204.88V12.185V9.27113H194.873V12.185ZM204.88 12.185H201.966V37.5H204.88H207.794V12.185H204.88ZM204.88 37.5V34.5861H194.873V37.5V40.4139H204.88V37.5ZM194.873 37.5H197.787V12.185H194.873H191.959V37.5H194.873ZM224.001 12.185V9.27113H221.087V12.185H224.001ZM234.008 12.185H236.922V9.27113H234.008V12.185ZM234.008 37.5V40.4139H236.922V37.5H234.008ZM224.001 37.5H221.087V40.4139H224.001V37.5ZM224.001 12.185V15.099H234.008V12.185V9.27113H224.001V12.185ZM234.008 12.185H231.094V37.5H234.008H236.922V12.185H234.008ZM234.008 37.5V34.5861H224.001V37.5V40.4139H234.008V37.5ZM224.001 37.5H226.915V12.185H224.001H221.087V37.5H224.001Z" fill="black" mask="url(#path-3-inside-1_3_7)"/>
</svg>
